<?xml version="1.0" encoding="iso-8859-1"?>
<!DOCTYPE svg PUBLIC "-//W3C//DTD SVG 1.0//EN" "http://www.w3.org/TR/2001/REC-SVG-20010904/DTD/svg10.dtd">
<!-- Creator: CorelDRAW -->
<svg xmlns="http://www.w3.org/2000/svg" xmlns:odm="http://product.corel.com/CGS/11/cddns/" xml:space="preserve" width="801px" height="323px" style="shape-rendering:geometricPrecision; text-rendering:geometricPrecision; image-rendering:optimizeQuality; fill-rule:evenodd"
     viewBox="0 0 802 322">
 <defs>
  <style type="text/css">
   <![CDATA[
    .fil0 {fill:#505C64}
    .fil2 {fill:#88292B}
    .fil1 {fill:#D52C27}
   ]]>
  </style>
 </defs>
 <g id="Ebene 1">
  <g>
   <path class="fil0" d="M280 197l-131 0 0 -128 131 0 0 128z"/>
   <g>
    <rect class="fil1" x="7" y="69" width="132" height="128"/>
    <path class="fil1" d="M149 69l67 -67 0 128 -67 67 0 -128z"/>
   </g>
   <path class="fil0" d="M332 256l0 -32 11 0c4,0 8,1 10,5 3,3 4,6 4,11 0,4 -1,8 -4,11 -2,4 -5,5 -9,5l-12 0zm4 -3l6 0c4,0 6,-1 8,-4 2,-2 3,-5 3,-9 0,-4 -1,-6 -3,-9 -1,-3 -4,-4 -8,-4l-6 0 0 26zm45 3l-3 0 0 -4c-2,3 -4,5 -8,5 -2,0 -4,-1 -5,-3 -2,-1 -2,-4 -2,-6l0 -16 3 0 0 16c0,2 1,4 2,4 1,1 2,2 3,2 1,0 2,-1 3,-1 1,-1 2,-2 3,-3 0,-1 0,-3 0,-4l0 -14 4 0 0 24zm26 0l-4 0c0,-1 0,-2 0,-4 -2,3 -5,5 -8,5 -3,0 -5,-1 -6,-2 -2,-2 -3,-3 -3,-5 0,-3 1,-5 3,-6 2,-2 6,-3 11,-3 0,0 1,0 3,0 0,-2 0,-3 -1,-4 0,-1 0,-1 -1,-2 -1,0 -3,-1 -4,-1 -4,0 -6,2 -7,5l-3 -1c1,-4 4,-6 10,-6 4,0 6,0 7,2 2,1 2,4 2,7l0 11c0,1 1,3 1,4zm-4 -12c-2,0 -3,0 -4,0 -2,0 -5,1 -6,2 -2,0 -3,2 -3,4 0,1 1,2 2,3 0,1 2,1 3,1 3,0 4,-1 6,-3 1,-1 2,-3 2,-5 0,-1 0,-1 0,-2zm14 12l-3 0 0 -32 3 0 0 32zm23 -7l4 1c-1,2 -2,3 -4,5 -2,1 -4,2 -6,2 -4,0 -6,-1 -8,-4 -2,-2 -3,-5 -3,-9 0,-3 1,-7 3,-9 2,-2 5,-3 8,-3 3,0 5,1 7,3 2,2 3,5 3,10l-17 0c0,3 1,6 2,7 2,1 3,2 5,2 3,0 5,-2 6,-5zm0 -7c0,-2 0,-3 -1,-4 0,-1 -1,-2 -2,-2 -1,-1 -2,-2 -3,-2 -2,0 -4,1 -5,2 -1,2 -2,4 -2,6l13 0zm45 14l-4 0 0 -15 -15 0 0 15 -4 0 0 -32 4 0 0 13 15 0 0 -13 4 0 0 32zm16 1c-4,0 -6,-1 -8,-4 -2,-2 -3,-5 -3,-9 0,-4 1,-7 3,-9 2,-2 5,-3 8,-3 3,0 6,1 8,3 2,3 2,6 2,9 0,4 -1,7 -3,9 -2,3 -4,4 -7,4zm0 -3c2,0 3,-1 5,-3 1,-1 1,-4 1,-7 0,-3 0,-6 -2,-7 -1,-2 -2,-2 -4,-2 -2,0 -4,0 -5,2 -1,1 -2,4 -2,7 0,4 1,6 2,8 1,1 3,2 5,2zm30 -6l3 0c0,3 -1,5 -3,7 -1,1 -3,2 -6,2 -3,0 -6,-1 -7,-4 -2,-2 -3,-5 -3,-9 0,-3 1,-6 3,-9 2,-2 4,-3 7,-3 3,0 5,0 6,2 2,1 3,3 3,6l-3 1c-1,-4 -3,-6 -6,-6 -2,0 -3,1 -4,2 -1,2 -2,4 -2,7 0,3 1,6 2,7 1,2 2,3 4,3 3,0 5,-2 6,-6zm27 8l-4 0 0 -14c0,-2 0,-3 0,-4 0,-1 -1,-2 -2,-2 -1,-1 -1,-1 -2,-1 -2,0 -4,0 -5,2 -1,2 -2,4 -2,6l0 13 -4 0 0 -32 4 0 0 13c2,-4 4,-5 7,-5 1,0 3,0 4,0 1,1 2,2 2,3 1,0 1,1 1,2 1,1 1,3 1,5l0 14zm4 -6l3 -1c1,3 4,5 8,5 1,0 3,-1 4,-1 1,-1 1,-2 1,-3 0,-2 -1,-3 -4,-4l-5 -1c-2,0 -3,-1 -4,-2 -2,-1 -2,-3 -2,-4 0,-2 1,-4 2,-5 2,-2 4,-2 6,-2 6,0 9,2 10,6l-3 0c-1,-2 -3,-3 -6,-3 -2,0 -3,0 -4,1 -1,0 -1,1 -1,2 0,2 1,3 3,4l5 0c5,1 7,4 7,7 0,3 -1,4 -3,6 -1,1 -4,2 -7,2 -5,0 -9,-2 -10,-7zm39 -2l3 0c0,3 -1,5 -3,7 -1,1 -3,2 -6,2 -3,0 -5,-1 -7,-4 -2,-2 -3,-5 -3,-9 0,-3 1,-6 3,-9 2,-2 4,-3 7,-3 3,0 5,0 7,2 1,1 2,3 2,6l-3 1c-1,-4 -2,-6 -6,-6 -2,0 -3,1 -4,2 -1,2 -2,4 -2,7 0,3 1,6 2,7 1,2 2,3 4,3 3,0 5,-2 6,-6zm27 8l-4 0 0 -14c0,-2 0,-3 0,-4 0,-1 -1,-2 -2,-2 0,-1 -1,-1 -2,-1 -2,0 -4,0 -5,2 -1,2 -2,4 -2,6l0 13 -4 0 0 -32 4 0 0 13c2,-4 4,-5 7,-5 2,0 3,0 4,0 1,1 2,2 2,3 1,0 1,1 2,2 0,1 0,3 0,5l0 14zm26 0l-4 0 0 -4c-1,3 -4,5 -7,5 -2,0 -4,-1 -6,-3 -1,-1 -2,-4 -2,-6l0 -16 4 0 0 16c0,2 0,4 1,4 1,1 2,2 4,2 1,0 2,-1 3,-1 1,-1 1,-2 2,-3 1,-1 1,-3 1,-4l0 -14 4 0 0 24zm11 0l-4 0 0 -32 4 0 0 32zm23 -7l3 1c-1,2 -2,3 -4,5 -1,1 -4,2 -6,2 -3,0 -6,-1 -8,-4 -2,-2 -3,-5 -3,-9 0,-3 1,-7 3,-9 2,-2 5,-3 8,-3 3,0 6,1 8,3 1,2 2,5 2,10l-17 0c0,3 1,6 3,7 1,1 3,2 4,2 3,0 5,-2 7,-5zm-1 -7c0,-2 0,-3 0,-4 -1,-1 -1,-2 -2,-2 -1,-1 -2,-2 -4,-2 -2,0 -3,1 -4,2 -2,2 -2,4 -3,6l13 0zm-355 69l0 -32 13 0c3,0 5,1 7,2 1,2 2,4 2,6 0,3 -2,6 -6,7 3,1 4,2 5,3 1,2 2,3 2,5 0,3 -1,5 -3,7 -1,1 -4,2 -7,2l-13 0zm4 -18l7 0c3,0 5,-1 6,-2 1,-1 1,-2 1,-4 0,-1 -1,-3 -2,-4 -1,0 -2,-1 -4,-1l-8 0 0 11zm0 15l8 0c2,0 4,-1 5,-2 1,-1 2,-2 2,-4 0,-1 0,-2 -1,-3 0,-1 -1,-2 -2,-2 -1,-1 -2,-1 -4,-1l-8 0 0 12zm43 3l-4 0c0,-1 0,-2 0,-4 -2,3 -4,5 -8,5 -3,0 -5,-1 -6,-2 -2,-2 -3,-3 -3,-5 0,-3 2,-5 4,-6 2,-2 5,-3 10,-3 0,0 2,0 3,0 0,-2 0,-3 0,-4 -1,-1 -1,-1 -2,-2 -1,0 -2,-1 -4,-1 -4,0 -6,2 -6,5l-4 -1c1,-4 4,-6 11,-6 3,0 5,0 6,2 2,1 3,4 3,7l0 11c0,1 0,3 0,4zm-4 -12c-2,0 -3,0 -3,0 -3,0 -6,1 -7,1 -2,1 -3,3 -3,5 0,1 1,2 2,3 1,1 2,1 3,1 3,0 4,-1 6,-3 1,-1 2,-3 2,-5 0,-1 0,-1 0,-2zm29 -20l0 32 -3 0 0 -4c-2,3 -4,5 -8,5 -2,0 -5,-1 -6,-4 -2,-2 -3,-5 -3,-9 0,-3 1,-6 3,-9 1,-2 4,-3 7,-3 2,0 5,1 7,3l0 -11 3 0zm-3 17c0,-2 -1,-3 -2,-5 -2,-1 -3,-1 -5,-1 -2,0 -3,0 -4,2 -1,2 -2,4 -2,7 0,3 1,6 2,7 1,2 2,3 4,3 2,0 3,-1 5,-2 1,-2 2,-4 2,-6l0 -5zm26 8l3 1c0,2 -1,3 -3,5 -2,1 -4,2 -7,2 -3,0 -5,-1 -7,-4 -2,-2 -3,-5 -3,-9 0,-3 1,-7 3,-9 2,-2 4,-3 8,-3 3,0 5,1 7,3 2,2 3,5 3,10l-17 0c0,3 1,6 2,7 2,1 3,2 5,2 3,0 5,-2 6,-5zm0 -7c0,-2 0,-3 -1,-4 0,-1 -1,-2 -2,-2 -1,-1 -2,-2 -3,-2 -2,0 -4,1 -5,2 -1,2 -2,4 -2,6l13 0zm28 14l-3 0 0 -15c0,-2 -1,-4 -2,-5 -1,-1 -2,-1 -3,-1 -2,0 -4,1 -5,2 -1,2 -2,4 -2,6l0 13 -4 0 0 -24 4 0 0 5c2,-4 4,-5 7,-5 2,0 3,0 5,1 1,1 2,2 2,3 1,1 1,3 1,6l0 14zm15 -13l0 2 -11 0 0 -2 11 0zm39 -19l-8 32 -4 0 -7 -25 -6 25 -4 0 -8 -32 4 0 6 26 7 -26 3 0 7 26 6 -26 4 0zm23 32l-3 0 0 -4c-2,3 -4,5 -8,5 -2,0 -4,-1 -5,-3 -2,-1 -3,-4 -3,-6l0 -16 4 0 0 16c0,2 1,4 2,4 1,1 2,2 3,2 1,0 2,-1 3,-1 1,-1 2,-2 2,-3 1,-1 1,-3 1,-4l0 -14 4 0 0 24zm-3 -31c0,1 0,2 -1,2 0,0 -1,1 -2,1 0,0 -1,-1 -1,-1 -1,0 -1,-1 -1,-2 0,0 0,-1 1,-1 0,-1 1,-1 1,-1 1,0 2,0 2,1 1,0 1,1 1,1zm-8 0c0,1 0,2 0,2 -1,0 -1,1 -2,1 -1,0 -1,-1 -2,-1 0,0 0,-1 0,-2 0,0 0,-1 0,-1 1,-1 1,-1 2,-1 1,0 1,0 2,1 0,0 0,1 0,1zm22 31l-4 0 0 -24 4 0 0 6c1,-3 2,-5 3,-5 1,-1 2,-1 3,-1 1,0 1,0 2,0l0 3 -1 0c-2,0 -4,1 -5,2 -1,2 -2,4 -2,7l0 12zm24 -2l0 3c-1,0 -2,0 -3,0 -5,0 -7,-3 -7,-7l0 -15 -4 0 0 -3 4 0 0 -6 4 0 0 6 5 0 0 3 -5 0 0 15c0,3 1,4 3,4 1,0 2,0 3,0zm15 0l0 3c-1,0 -2,0 -3,0 -5,0 -7,-3 -7,-7l0 -15 -4 0 0 -3 4 0 0 -6 3 0 0 6 6 0 0 3 -6 0 0 15c0,3 2,4 4,4 1,0 2,0 3,0zm19 -5l3 1c0,2 -2,3 -3,5 -2,1 -4,2 -7,2 -3,0 -6,-1 -8,-4 -2,-2 -3,-5 -3,-9 0,-3 1,-7 3,-9 3,-2 5,-3 8,-3 3,0 6,1 8,3 2,2 3,5 3,10l-18 0c0,3 1,6 3,7 1,1 3,2 4,2 3,0 6,-2 7,-5zm0 -7c0,-2 -1,-3 -1,-4 0,-1 -1,-2 -2,-2 -1,-1 -2,-2 -4,-2 -1,0 -3,1 -4,2 -2,2 -2,4 -2,6l13 0zm41 14l-4 0 0 -15c0,-1 0,-2 0,-3 0,-1 -1,-2 -2,-2 -1,-1 -2,-1 -3,-1 -1,0 -2,0 -4,2 -1,1 -2,3 -2,6l0 13 -3 0 0 -16c0,-2 -1,-3 -2,-4 -1,-1 -2,-1 -3,-1 -1,0 -3,0 -4,2 -1,1 -1,3 -1,5l0 14 -4 0 0 -24 3 0 0 5c2,-4 4,-5 7,-5 2,0 4,0 5,1 1,1 2,3 2,4 2,-4 4,-5 8,-5 1,0 3,0 4,1 1,1 2,2 2,3 0,1 1,3 1,5l0 15zm9 0l-2 0 0 -32 4 0 0 12c1,-3 4,-4 7,-4 2,0 5,1 6,3 2,2 3,5 3,9 0,4 -1,7 -3,9 -1,3 -4,4 -7,4 -3,0 -5,-2 -7,-5l-1 4zm2 -9c0,2 1,4 2,5 1,1 3,2 4,2 2,0 3,-1 5,-3 1,-1 1,-4 1,-6 0,-4 0,-6 -1,-8 -2,-1 -3,-2 -5,-2 -2,0 -3,0 -4,2 -1,1 -2,2 -2,4l0 6zm37 2l4 1c-1,2 -2,3 -4,5 -2,1 -4,2 -6,2 -4,0 -6,-1 -8,-4 -2,-2 -3,-5 -3,-9 0,-3 1,-7 3,-9 2,-2 5,-3 8,-3 3,0 5,1 7,3 2,2 3,5 3,10l-17 0c0,3 1,6 2,7 2,1 3,2 5,2 3,0 5,-2 6,-5zm0 -7c0,-2 0,-3 -1,-4 0,-1 -1,-2 -2,-2 -1,-1 -2,-2 -3,-2 -2,0 -4,1 -5,2 -1,2 -2,4 -2,6l13 0zm13 14l-4 0 0 -24 4 0 0 6c1,-3 2,-5 3,-5 1,-1 2,-1 4,-1 0,0 0,0 1,0l0 3 -1 0c-2,0 -3,1 -5,2 -1,2 -2,4 -2,7l0 12zm31 -28l0 3c-1,0 -2,1 -3,1 -1,0 -1,1 -1,2 1,2 2,4 2,6 0,2 -1,4 -2,6 -2,1 -4,2 -7,2 0,0 -1,0 -1,0 -1,0 -2,0 -2,0 -1,0 -1,0 -2,0 0,1 0,1 0,2 0,1 0,1 1,2 1,0 3,0 6,0 3,0 4,0 6,1 1,0 2,1 3,2 1,1 1,2 1,3 0,5 -4,7 -11,7 -4,0 -7,0 -9,-2 -1,-1 -2,-2 -2,-4 0,-2 1,-4 3,-5 -1,-1 -2,-2 -2,-4 0,-2 1,-3 3,-4 -2,-2 -3,-4 -3,-6 0,-3 1,-5 3,-6 2,-2 4,-2 6,-2 2,0 4,0 5,1 0,-2 1,-3 2,-4 1,0 2,-1 4,-1 0,0 0,0 0,0zm-11 17c2,0 3,0 4,-1 1,-1 2,-3 2,-4 0,-2 -1,-3 -2,-4 -1,-1 -2,-2 -4,-2 -1,0 -2,1 -3,2 -1,1 -2,2 -2,4 0,1 0,3 1,4 1,1 3,1 4,1zm-4 10c-2,1 -3,2 -3,3 0,2 1,3 2,3 2,1 4,1 6,1 2,0 4,0 5,-1 2,0 3,-1 3,-2 0,-1 0,-2 -1,-2 0,-1 -1,-1 -2,-1 -1,0 -2,0 -4,0 -3,-1 -5,-1 -6,-1z"/>
   <path class="fil2" d="M149 197l0 -25 0 -103 67 0 0 61 -67 67z"/>
   <path class="fil0" d="M139 197l-67 67 0 -127 67 -68 0 128z"/>
   <path class="fil2" d="M139 69l-67 68 0 60 67 0 0 -128z"/>
   <path class="fil1" d="M426 132c0,12 -1,22 -4,30 -3,8 -7,15 -12,20 -5,6 -11,10 -18,12 -7,2 -16,4 -26,4l-27 0c-2,0 -3,-1 -5,-2 -1,-1 -2,-4 -2,-6l0 -112c0,-3 1,-5 2,-6 2,-2 3,-2 5,-2l29 0c10,0 19,1 26,4 7,2 13,6 17,12 5,5 9,11 11,19 3,8 4,17 4,27zm-24 1c0,-6 0,-12 -1,-17 -2,-5 -4,-10 -7,-14 -2,-4 -6,-7 -10,-9 -5,-2 -10,-3 -17,-3l-12 0 0 87 12 0c6,0 12,-1 16,-3 4,-1 8,-4 11,-8 3,-4 5,-8 6,-14 2,-5 2,-12 2,-19z"/>
   <path class="fil1" d="M533 194c0,1 0,1 0,2 -1,0 -1,1 -2,1 -1,1 -2,1 -4,1 -1,0 -3,0 -5,0 -2,0 -4,0 -6,0 -1,0 -2,0 -3,-1 -1,0 -2,-1 -2,-1 -1,-1 -1,-1 -1,-2l0 -52 -42 0 0 52c0,1 0,1 -1,2 0,0 0,1 -1,1 -1,1 -2,1 -4,1 -1,0 -3,0 -5,0 -3,0 -4,0 -6,0 -1,0 -3,0 -4,-1 0,0 -1,-1 -1,-1 -1,-1 -1,-1 -1,-2l0 -121c0,0 0,-1 1,-2 0,0 1,-1 1,-1 1,0 3,0 4,-1 2,0 3,0 6,0 2,0 4,0 5,0 2,1 3,1 4,1 1,0 1,1 1,1 1,1 1,2 1,2l0 47 42 0 0 -47c0,0 0,-1 1,-2 0,0 1,-1 2,-1 1,0 2,0 3,-1 2,0 4,0 6,0 2,0 4,0 5,0 2,1 3,1 4,1 1,0 1,1 2,1 0,1 0,2 0,2l0 121z"/>
   <path class="fil0" d="M635 161c0,4 0,8 -1,11 -1,4 -2,7 -4,9 -2,3 -4,5 -6,7 -2,2 -5,4 -8,6 -3,1 -6,2 -9,3 -3,0 -7,1 -11,1l-30 0c-1,0 -2,-1 -4,-2 -1,-1 -1,-3 -1,-5l0 -114c0,-3 0,-5 1,-6 2,-1 3,-1 4,-1l26 0c7,0 12,0 17,2 4,1 7,3 10,6 3,3 5,6 7,10 1,4 2,9 2,14 0,3 0,6 -1,9 -1,3 -2,5 -3,7 -1,3 -3,5 -5,7 -1,2 -4,3 -6,4 3,1 6,2 9,4 2,2 5,4 7,7 2,2 3,5 4,9 2,4 2,8 2,12zm-22 -57c0,-3 -1,-6 -2,-9 0,-2 -2,-4 -3,-6 -2,-2 -4,-3 -7,-4 -2,-1 -6,-1 -10,-1l-16 0 0 41 18 0c4,0 7,-1 9,-2 2,-1 4,-2 6,-4 2,-2 3,-5 3,-7 1,-3 2,-6 2,-8zm6 58c0,-4 0,-7 -1,-10 -1,-3 -3,-5 -5,-7 -2,-2 -5,-4 -8,-5 -3,-1 -7,-1 -12,-1l-18 0 0 45 22 0c4,0 7,-1 9,-2 3,-1 5,-2 7,-4 2,-2 4,-4 5,-7 1,-2 1,-5 1,-9z"/>
   <path class="fil0" d="M764 194c0,1 0,2 -1,2 0,1 -1,1 -2,1 -1,1 -2,1 -3,1 -1,0 -2,0 -4,0 -2,0 -4,0 -5,0 -1,0 -2,0 -3,-1 -1,0 -1,0 -2,-1 0,0 0,-1 -1,-2l-23 -97 -1 0 -21 97c-1,1 -1,2 -1,2 -1,1 -1,1 -2,1 -1,1 -2,1 -3,1 -1,0 -3,0 -5,0 -1,0 -3,0 -4,0 -2,0 -3,0 -4,-1 0,0 -1,0 -1,-1 -1,0 -1,-1 -1,-2l-30 -118c-1,-2 -1,-3 -1,-4 0,-1 0,-1 1,-2 0,0 1,-1 2,-1 1,0 3,0 5,0 2,0 3,0 4,0 1,0 2,0 2,1 1,0 1,0 2,1 0,0 0,1 0,2l26 107 0 0 24 -107c0,-1 0,-2 0,-2 1,0 1,-1 2,-1 0,0 1,-1 2,-1 1,0 3,0 4,0 2,0 3,0 4,0 1,0 2,1 3,1 0,0 1,1 1,1 0,0 0,1 1,2l25 107 1 0 25 -107c0,-1 0,-2 0,-2 0,0 1,-1 1,-1 1,0 2,-1 3,-1 1,0 2,0 4,0 1,0 3,0 4,0 1,0 1,1 2,1 0,1 1,1 1,2 0,1 -1,2 -1,4l-30 118z"/>
  </g>
 </g>
</svg>
